#!OML:ASF H:\SpeedWalk\Project 1\Capture day 2\Session 1\male.ASF
:FULLY-SPECIFIED
:DEGREES
84
root -8.453004 17.906519 -16.660373 -2.647365 -0.795248 -6.666956
lowerback 13.749610 2.065518 6.809973 
upperback 1.108093 4.030450 3.623090 
thorax -6.337689 1.830574 -0.749892 
lowerneck -12.890982 0.492358 1.720210 
upperneck 18.324859 1.262449 -4.619822 
head 7.820914 0.280968 -1.678732 
rclavicle 0.000000 0.000000 
rhumerus -24.565500 -14.680851 -79.993257 
rradius 30.096499 
rwrist -2.819827 
rhand -13.314176 -10.850068 
rfingers 0.000000 
rthumb 12.790345 -40.438304 
lclavicle 0.000000 0.000000 
lhumerus -38.251288 3.053476 88.149181 
lradius 42.422294 
lwrist -10.295357 
lhand -7.946907 15.371612 
lfingers 0.000000 
lthumb 17.959976 44.562320 
rfemur 3.533145 0.222893 32.553360 
rtibia 17.596810 
rfoot -13.364763 -7.011031 
rtoes 4.241620 
lfemur -72.676987 3.525042 -15.575842 
ltibia 87.108628 
lfoot -23.279355 -9.273906 
ltoes -6.146445 
85
root -8.451219 17.901158 -16.574706 -2.717073 -0.960705 -6.664350
lowerback 13.826046 2.097720 6.832663 
upperback 1.180287 4.076770 3.604437 
thorax -6.297129 1.854526 -0.792483 
lowerneck -12.837893 0.522898 1.738305 
upperneck 18.257042 1.306280 -4.658956 
head 7.790879 0.300605 -1.689370 
rclavicle 0.000000 0.000000 
rhumerus -24.342983 -14.410155 -80.156540 
rradius 30.288113 
rwrist -3.047259 
rhand -13.317040 -10.834749 
rfingers 0.000000 
rthumb 12.787524 -40.423140 
lclavicle 0.000000 0.000000 
lhumerus -38.206929 3.065428 88.127707 
lradius 42.351194 
lwrist -10.350790 
lhand -7.916270 15.416600 
lfingers 0.000000 
lthumb 17.989449 44.604589 
rfemur 3.982818 0.188408 32.560298 
rtibia 17.482662 
rfoot -13.424403 -7.001562 
rtoes 3.981864 
lfemur -72.685410 3.448250 -15.502191 
ltibia 85.951965 
lfoot -22.872070 -9.398051 
ltoes -5.784362 
86
root -8.449377 17.895668 -16.490266 -2.783533 -1.132407 -6.666032
lowerback 13.895488 2.132463 6.856472 
upperback 1.252626 4.126106 3.588409 
thorax -6.252386 1.880141 -0.833132 
lowerneck -12.781045 0.553021 1.757899 
upperneck 18.184682 1.348909 -4.697529 
head 7.758693 0.319942 -1.700165 
rclavicle 0.000000 0.000000 
rhumerus -24.126908 -14.147450 -80.313337 
rradius 30.470666 
rwrist -3.265136 
rhand -13.324931 -10.822469 
rfingers 0.000000 
rthumb 12.779902 -40.411302 
lclavicle 0.000000 0.000000 
lhumerus -38.163009 3.075738 88.109037 
lradius 42.277582 
lwrist -10.413320 
lhand -7.882047 15.463291 
lfingers 0.000000 
lthumb 18.022360 44.648258 
rfemur 4.424381 0.159392 32.570931 
rtibia 17.369789 
rfoot -13.478490 -6.993581 
rtoes 3.723091 
lfemur -72.661243 3.392544 -15.420784 
ltibia 84.831580 
lfoot -22.440222 -9.490934 
ltoes -5.411833 
87
root -8.447499 17.890054 -16.407008 -2.846405 -1.309579 -6.671990
lowerback 13.958415 2.169463 6.881478 
upperback 1.324776 4.178160 3.574854 
thorax -6.204096 1.907244 -0.872015 
lowerneck -12.721124 0.582638 1.778665 
upperneck 18.108311 1.390278 -4.735435 
head 7.724652 0.338925 -1.711038 
rclavicle 0.000000 0.000000 
rhumerus -23.917096 -13.892329 -80.464146 
rradius 30.645228 
rwrist -3.473078 
rhand -13.336584 -10.813851 
rfingers 0.000000 
rthumb 12.768708 -40.403339 
lclavicle 0.000000 0.000000 
lhumerus -38.119821 3.084792 88.092879 
lradius 42.201801 
lwrist -10.483726 
lhand -7.846291 15.510007 
lfingers 0.000000 
lthumb 18.056736 44.691830 
rfemur 4.857822 0.136417 32.585231 
rtibia 17.257897 
rfoot -13.527414 -6.986449 
rtoes 3.465102 
lfemur -72.609174 3.355678 -15.331889 
ltibia 83.746119 
lfoot -21.986397 -9.555755 
ltoes -5.036635 
88
root -8.445357 17.884437 -16.326231 -2.898972 -1.491815 -6.684162
lowerback 14.009037 2.207674 6.910265 
upperback 1.393162 4.231656 3.563851 
thorax -6.152734 1.935106 -0.910024 
lowerneck -12.660457 0.608600 1.793878 
upperneck 18.027884 1.426764 -4.769502 
head 7.688946 0.355662 -1.720218 
rclavicle 0.000000 0.000000 
rhumerus -23.720623 -13.650917 -80.604513 
rradius 30.811831 
rwrist -3.648940 
rhand -13.328257 -10.846630 
rfingers 0.000000 
rthumb 12.776704 -40.435656 
lclavicle 0.000000 0.000000 
lhumerus -38.082152 3.084495 88.084353 
lradius 42.128710 
lwrist -10.557875 
lhand -7.812845 15.568031 
lfingers 0.000000 
lthumb 18.088920 44.746880 
rfemur 5.270569 0.125419 32.601818 
rtibia 17.149978 
rfoot -13.570304 -6.972181 
rtoes 3.194936 
lfemur -72.519627 3.341344 -15.231372 
ltibia 82.730576 
lfoot -21.508925 -9.584806 
ltoes -4.616064 
89
root -8.443181 17.878827 -16.246608 -2.946337 -1.676403 -6.698873
lowerback 14.052637 2.247238 6.938868 
upperback 1.460311 4.286428 3.554647 
thorax -6.098796 1.963735 -0.945905 
lowerneck -12.601385 0.633351 1.806285 
upperneck 17.946680 1.461452 -4.800407 
head 7.653231 0.371661 -1.728079 
rclavicle 0.000000 0.000000 
rhumerus -23.530315 -13.417232 -80.739145 
rradius 30.970999 
rwrist -3.810033 
rhand -13.317735 -10.884899 
rfingers 0.000000 
rthumb 12.786869 -40.473308 
lclavicle 0.000000 0.000000 
lhumerus -38.046692 3.081777 88.078437 
lradius 42.056827 
lwrist -10.633701 
lhand -7.778018 15.619938 
lfingers 0.000000 
lthumb 18.122426 44.795673 
rfemur 5.670833 0.118733 32.617768 
rtibia 17.048198 
rfoot -13.608504 -6.948187 
rtoes 2.911641 
lfemur -72.414195 3.337089 -15.124741 
ltibia 81.755367 
lfoot -21.033749 -9.595881 
ltoes -4.208102 
90
root -8.440971 17.873224 -16.168082 -2.988757 -1.863226 -6.715996
lowerback 14.089564 2.288088 6.967296 
upperback 1.526285 4.342412 3.547153 
thorax -6.042411 1.993092 -0.979764 
lowerneck -12.543828 0.656950 1.816027 
upperneck 17.864739 1.494433 -4.828307 
head 7.617506 0.386958 -1.734688 
rclavicle 0.000000 0.000000 
rhumerus -23.345867 -13.190889 -80.868329 
rradius 31.123104 
rwrist -3.957095 
rhand -13.305129 -10.928385 
rfingers 0.000000 
rthumb 12.799093 -40.516029 
lclavicle 0.000000 0.000000 
lhumerus -38.013329 3.076760 88.074999 
lradius 41.986091 
lwrist -10.711123 
lhand -7.741880 15.666034 
lfingers 0.000000 
lthumb 18.157190 44.838522 
rfemur 6.059239 0.116143 32.633113 
rtibia 16.952249 
rfoot -13.642249 -6.914952 
rtoes 2.615874 
lfemur -72.293670 3.342412 -15.012302 
ltibia 80.818480 
lfoot -20.560753 -9.589877 
ltoes -3.812120 
91
root -8.438704 17.867479 -16.091945 -3.016944 -2.049066 -6.735548
lowerback 14.113673 2.330146 6.993987 
upperback 1.585367 4.399112 3.541495 
thorax -5.986426 2.022819 -1.010303 
lowerneck -12.482309 0.679473 1.824520 
upperneck 17.778682 1.525176 -4.852216 
head 7.579637 0.401620 -1.739989 
rclavicle 0.000000 0.000000 
rhumerus -23.174237 -12.986271 -80.984512 
rradius 31.255434 
rwrist -4.062455 
rhand -13.278332 -10.977499 
rfingers 0.000000 
rthumb 12.824887 -40.563542 
lclavicle 0.000000 0.000000 
lhumerus -37.989773 3.066746 88.074915 
lradius 41.919483 
lwrist -10.785729 
lhand -7.701784 15.693211 
lfingers 0.000000 
lthumb 18.195764 44.862108 
rfemur 6.414618 0.120682 32.643747 
rtibia 16.874725 
rfoot -13.670614 -6.859793 
rtoes 2.296383 
lfemur -72.158379 3.358078 -14.892820 
ltibia 79.957582 
lfoot -20.113893 -9.554754 
ltoes -3.453822 
92
root -8.436406 17.861725 -16.016770 -3.039858 -2.233333 -6.756155
lowerback 14.133295 2.372281 7.020450 
upperback 1.641747 4.455693 3.536621 
thorax -5.930912 2.052474 -1.039667 
lowerneck -12.419879 0.701371 1.832178 
upperneck 17.691763 1.554957 -4.875007 
head 7.541310 0.415909 -1.744888 
rclavicle 0.000000 0.000000 
rhumerus -23.007440 -12.788727 -81.095702 
rradius 31.380110 
rwrist -4.154118 
rhand -13.245256 -11.027274 
rfingers 0.000000 
rthumb 12.856755 -40.611323 
lclavicle 0.000000 0.000000 
lhumerus -37.969536 3.056298 88.075851 
lradius 41.855002 
lwrist -10.860851 
lhand -7.660328 15.715474 
lfingers 0.000000 
lthumb 18.235639 44.880661 
rfemur 6.755513 0.127249 32.652367 
rtibia 16.807485 
rfoot -13.697950 -6.795466 
rtoes 1.968145 
lfemur -72.019252 3.375406 -14.770602 
ltibia 79.127016 
lfoot -19.682185 -9.508862 
ltoes -3.116162 
93
root -8.434047 17.855973 -15.943422 -3.052912 -2.414207 -6.778793
lowerback 14.144624 2.414422 7.046643 
upperback 1.693016 4.511911 3.533251 
thorax -5.876396 2.081918 -1.066851 
lowerneck -12.355953 0.722020 1.838136 
upperneck 17.603477 1.582886 -4.895840 
head 7.502250 0.429449 -1.749061 
rclavicle 0.000000 0.000000 
rhumerus -22.849710 -12.604054 -81.197490 
rradius 31.490350 
rwrist -4.220820 
rhand -13.200056 -11.077757 
rfingers 0.000000 
rthumb 12.900370 -40.659047 
lclavicle 0.000000 0.000000 
lhumerus -37.955389 3.045561 88.078610 
lradius 41.794716 
lwrist -10.937515 
lhand -7.616367 15.729327 
lfingers 0.000000 
lthumb 18.277904 44.890581 
rfemur 7.068483 0.137378 32.657122 
rtibia 16.760759 
rfoot -13.723720 -6.713608 
rtoes 1.623564 
lfemur -71.873556 3.395035 -14.643221 
ltibia 78.353982 
lfoot -19.280846 -9.442841 
ltoes -2.819575 
